Jock Of The Bushveld 2011 DVDRip XviD AC3 - DiVERSiTY


Infomation:


GENERAL:
Complete name                    : Jock Of The Bushveld 2011 DiVERSiTY.avi
Format                           : AVI
Format/Info                      : Audio Video Interleave
File size                        : 1 009 MiB
Duration                         : 1h 20mn
Overall bit rate                 : 1 762 Kbps
Encoder                          : usagi
Sample                           : yes
Source                           : DVD-9 thnx whoever made it
IMDb                             : http://www.imdb.com/title/tt1822239/


VIDEO
ID                               : 0
Format                           : MPEG-4 Visual
Format profile                   : Advanced Simple@L5
Format settings, BVOP            : 2
Format settings, QPel            : No
Format settings, GMC             : No warppoints
Format settings, Matrix          : Default (H.263)
Codec ID                         : XVID
Codec ID/Hint                    : XviD
Duration                         : 1h 20mn
Bit rate                         : 1 306 Kbps
Width                            : 720 pixels
Height                           : 400 pixels
Display aspect ratio             : 16:9
Frame rate                       : 25.000 fps
Color space                      : YUV
Chroma subsampling               : 4:2:0
Bit depth                        : 8 bits
Scan type                        : Progressive
Compression mode                 : Lossy
Bits/(Pixel*Frame)               : 0.181
Stream size                      : 748 MiB (74%)
Writing library                  : XviD 1.2.1 (UTC 2008-12-04)


AUDIO
ID                               : 1
Format                           : AC-3
Format/Info                      : Audio Coding 3
Mode extension                   : CM (complete main)
Codec ID                         : 2000
Duration                         : 1h 20mn
Bit rate mode                    : Constant
Bit rate                         : 448 Kbps
Channel(s)                       : 6 channels
Channel positions                : Front: L C R, Side: L R, LFE
Sampling rate                    : 48.0 KHz
Bit depth                        : 16 bits
Compression mode                 : Lossy
Stream size                      : 257 MiB (25%)
Alignment                        : Aligned on interleaves
Interleave, duration             : 64 ms (1.60 video frames)
Interleave, preload duration     : 192 ms
Title                            : VTS_01_1 T80 3_2ch 448Kbps DELAY 0ms_new


Plot:


Animated-family adventure that tells the heart-warming, coming-of-age story 
of a man and his best-friend, a lovable and fearless dog named, Jock.


Cast:


Bryan Adams ... Jock (voice)
William Baldwin ... Boatman (voice)
Anthony Bishop ... George (voice)
Louisa Cerdan ... (voice)
Philina Cerdan ... (voice)
Ted Danson ... Pezulu (voice)
Rose Emanuel ... Julien (voice)
Ava Flutie ... (voice)


Poster:

 
http://i.imgur.com/ceIlg.jpg


Screenshots:

 
http://i.imgur.com/Y5CQT.jpg


ENJOY!